# xmcd
#
# Track frame offsets:
#	150
#	17210
#	37680
#
# Disc length: 742 seconds
# Revision: 0
# Processed by: cddbd v1.5.2PL0 Copyright (c) Steve Scherf et al.
# Submitted via: dBpowerAMP V12.0
#
DISCID=1602e403
DTITLE=Vitamin C - Me, Myself And I
DYEAR=1999
DGENRE=Pop
TTITLE0=Me, Myself And I [Radio Edit]
TTITLE1=Me, Myself And I [Pablo Flores Miami Mix Radio Edit]
TTITLE2=Me, Myself And I [Jonathan Peters Radio Edit]
EXTD=
EXTT0=
EXTT1=
EXTT2=
PLAYORDER=
